<svg xmlns="http://www.w3.org/2000/svg" xmlns:xlink="http://www.w3.org/1999/xlink" width="24" height="23.922"><defs><linearGradient id="a"><stop offset="0" stop-color="purple"/><stop offset="1" stop-color="purple" stop-opacity="0"/></linearGradient><linearGradient xlink:href="#a" id="b" x1="25.291" y1="47.453" x2="24.744" y2="-72.985" gradientUnits="userSpaceOnUse" gradientTransform="translate(12.03 11.991) scale(.50037)"/><clipPath id="c"><path d="M9.786 47.792c-4.2-.711-7.78-3.786-9.098-7.813-.623-1.901-.592-1.07-.592-15.926 0-12.755.009-13.47.172-14.337.478-2.534 1.47-4.407 3.292-6.215C5.26 1.814 6.922.906 9.426.295c.586-.143 1.775-.16 14.04-.19C32.756.082 37.13.102 37.732.172c5.01.575 8.924 4.15 10.08 9.202l.204.89.033 13.059c.033 13.222.013 14.26-.3 15.605a11.686 11.686 0 0 1-4.33 6.656c-1.346 1.01-2.61 1.608-4.45 2.102l-.732.197-13.857.017c-11.362.014-13.99-.005-14.594-.108z" fill="none" stroke="#000" stroke-width="2" stroke-opacity=".078"/></clipPath></defs><path d="M16.927 35.905c-2.101-.356-3.893-1.895-4.553-3.91-.311-.95-.296-.535-.296-7.968 0-6.383.005-6.74.086-7.174.24-1.268.736-2.205 1.648-3.11.85-.844 1.682-1.299 2.935-1.604.293-.072.888-.08 7.025-.095 4.649-.012 6.837-.002 7.138.033 2.507.288 4.466 2.076 5.044 4.605l.102.445.016 6.534c.017 6.616.007 7.136-.15 7.809a5.847 5.847 0 0 1-2.166 3.33c-.674.506-1.306.805-2.227 1.052l-.366.098-6.934.009c-5.685.007-7-.003-7.302-.054z" fill="url(#b)" transform="translate(-12.078 -12.04)"/><path d="M9.786 47.792c-4.2-.711-7.78-3.786-9.098-7.813-.623-1.901-.592-1.07-.592-15.926 0-12.755.009-13.47.172-14.337.478-2.534 1.47-4.407 3.292-6.215C5.26 1.814 6.922.906 9.426.295c.586-.143 1.775-.16 14.04-.19C32.756.082 37.13.102 37.732.172c5.01.575 8.924 4.15 10.08 9.202l.204.89.033 13.059c.033 13.222.013 14.26-.3 15.605a11.686 11.686 0 0 1-4.33 6.656c-1.346 1.01-2.61 1.608-4.45 2.102l-.732.197-13.857.017c-11.362.014-13.99-.005-14.594-.108z" clip-path="url(#c)" transform="translate(-.048 -.048) scale(.50037)" fill="none" stroke="#000" stroke-width="4" stroke-opacity=".078"/><rect width="6.293" height="11.902" x="4.056" y="5.8" ry="3.147" fill="none"/><text y="18.198" x="23.787" style="line-height:1.25;-inkscape-font-specification:Symbol" font-weight="400" font-size="40" font-family="Symbol" letter-spacing="0" word-spacing="0" transform="translate(-12.078 -12.04)"/><text y="22.163" x="21.6" style="line-height:1.25;-inkscape-font-specification:Symbol" font-weight="400" font-size="40" font-family="Symbol" letter-spacing="0" word-spacing="0" transform="translate(-12.078 -12.04)"/><path fill="#0ff" d="M5.252 10.76h5.5v2.4h-5.5zM13.252 10.76h5.5v2.4h-5.5z"/><path fill="#fff" d="M5.252 6.76h5.5v2.4h-5.5zM13.252 6.76h5.5v2.4h-5.5zM5.252 14.76h5.5v2.4h-5.5zM13.252 14.76h5.5v2.4h-5.5z"/></svg>